<svg xmlns="http://www.w3.org/2000/svg" viewBox="0 0 64 64">
    <rect width="6" height="17" x="13" y="13" fill="#efc88e"></rect>
    <path fill="#8d6c9f" d="M19,31h-6c-0.552,0-1-0.448-1-1V13c0-0.552,0.448-1,1-1h6c0.552,0,1,0.448,1,1v17 C20,30.552,19.552,31,19,31z M14,29h4V14h-4V29z"></path>
    <path fill="#85cbf8" d="M13,15.591c-2.987,1.297-5,3.714-5,6.488s2.013,5.191,5,6.488V15.591z"></path>
    <path fill="#8d6c9f" d="M13,29.567c-0.135,0-0.271-0.027-0.398-0.083C9.146,27.984,7,25.146,7,22.079 c0-3.067,2.146-5.905,5.602-7.405c0.308-0.135,0.665-0.104,0.947,0.081C13.83,14.939,14,15.254,14,15.591v12.976 c0,0.337-0.17,0.651-0.452,0.836C13.383,29.512,13.192,29.567,13,29.567z M12,17.256c-1.881,1.226-3,2.983-3,4.823 c0,1.84,1.119,3.597,3,4.822V17.256z"></path>
    <rect width="6" height="17" x="44" y="13" fill="#efc88e"></rect>
    <path fill="#8d6c9f" d="M50,31h-6c-0.553,0-1-0.448-1-1V13c0-0.552,0.447-1,1-1h6c0.553,0,1,0.448,1,1v17 C51,30.552,50.553,31,50,31z M45,29h4V14h-4V29z"></path>
    <path fill="#85cbf8" d="M50,14.591c2.987,1.297,5,3.714,5,6.488s-2.013,5.191-5,6.488V14.591z"></path>
    <path fill="#8d6c9f" d="M50,28.567c-0.192,0-0.383-0.055-0.549-0.164C49.17,28.218,49,27.904,49,27.567V14.591 c0-0.337,0.17-0.651,0.451-0.836c0.283-0.184,0.637-0.215,0.947-0.081C53.854,15.175,56,18.012,56,21.079s-2.146,5.904-5.602,7.405 C50.271,28.54,50.135,28.567,50,28.567z M51,16.257v9.645c1.882-1.225,3-2.983,3-4.822S52.882,17.482,51,16.257z"></path>
    <path fill="#f9dd8f" d="M32.797,56c-5.676,0-10.917-2.577-13.93-4.989c-3.921-3.14-6.534-7.983-7.84-10.867 C15.167,36.345,22.918,34,31.429,34c9.141,0,17.385,2.714,21.204,6.947c-1.793,3.528-4.378,6.925-7.689,10.106 C41.526,54.336,37.44,56,32.797,56L32.797,56z"></path>
    <path fill="#8d6c9f" d="M32.797,57c-5.935,0-11.41-2.69-14.555-5.208c-4.146-3.32-6.871-8.464-8.126-11.235 c-0.178-0.394-0.083-0.857,0.235-1.149C14.658,35.455,22.734,33,31.429,33c9.488,0,17.897,2.789,21.946,7.277 c0.277,0.308,0.337,0.754,0.149,1.123c-1.843,3.626-4.497,7.117-7.888,10.374C42.027,55.242,37.707,57,32.797,57z M12.251,40.405 c1.289,2.704,3.729,7.013,7.241,9.825C22.372,52.536,27.38,55,32.797,55c4.376,0,8.229-1.571,11.455-4.669 c3.031-2.912,5.438-6.007,7.161-9.21C47.593,37.385,39.865,35,31.429,35C23.58,35,16.329,37.057,12.251,40.405z"></path>
    <path fill="#f9dd8f" d="M31.064,40c-8.295,0-13.245-3.435-13.321-4.764l-0.702-18.143c-0.288-3.482,0.921-6.835,3.401-9.473 C23.205,4.684,27.235,3,31.499,3s8.294,1.684,11.056,4.621c2.48,2.638,3.689,5.991,3.403,9.443l-0.705,18.185 C45.22,36.377,39.973,40,31.064,40z"></path>
    <path fill="#f9e3ae" d="M31.499,8c2.891,0,5.593,1.11,7.414,3.046c0.151,0.161,0.295,0.325,0.43,0.492 c0.996,1.23,2.811,1.407,4.097,0.484l0,0c0.862-0.619,1.071-1.81,0.48-2.692c-0.4-0.597-0.856-1.168-1.365-1.71 C39.793,4.684,35.763,3,31.499,3l0,0c-4.264,0-8.294,1.684-11.056,4.621c-0.398,0.423-0.763,0.865-1.094,1.322 c-0.777,1.072-0.482,2.583,0.594,3.354l0,0c1.149,0.824,2.715,0.543,3.574-0.58c0.175-0.229,0.365-0.452,0.569-0.67 C25.906,9.11,28.609,8,31.499,8 M31.064,40"></path>
    <path fill="#8d6c9f" d="M29.001,40.927c-0.024,0-0.048-0.001-0.072-0.002c-6.708-0.479-12.057-3.42-12.184-5.631 l-0.702-18.162c-0.309-3.713,0.995-7.35,3.671-10.196C22.665,3.799,26.96,2,31.499,2s8.834,1.799,11.785,4.936 c2.678,2.847,3.981,6.473,3.671,10.21l-0.702,18.142c-0.048,1.574-3.014,3.284-5.931,4.277c-0.522,0.177-1.091-0.102-1.269-0.625 c-0.179-0.523,0.102-1.091,0.624-1.269c2.931-0.997,4.329-2.179,4.581-2.569l0.701-18.077c0.265-3.209-0.849-6.29-3.133-8.719 C39.253,5.569,35.488,4,31.499,4c-3.99,0-7.754,1.569-10.328,4.306c-2.284,2.428-3.396,5.52-3.133,8.705l0.704,18.187 c0.26,0.672,3.889,3.273,10.329,3.732c0.551,0.04,0.965,0.518,0.926,1.069C29.96,40.525,29.521,40.927,29.001,40.927z M44.255,35.208c0,0.003,0,0.007-0.001,0.01L44.255,35.208z M44.285,35.055L44.285,35.055L44.285,35.055z"></path>
    <path fill="#8d6c9f" d="M32.999,40.942c-0.524,0-0.965-0.409-0.997-0.939c-0.034-0.551,0.386-1.025,0.938-1.059 c0.986-0.06,1.961-0.169,2.897-0.324c0.553-0.089,1.06,0.279,1.149,0.824c0.091,0.545-0.278,1.06-0.823,1.15 c-1.004,0.166-2.048,0.282-3.103,0.346C33.04,40.941,33.02,40.942,32.999,40.942z"></path>
    <path fill="#8d6c9f" d="M38.227,12.778c-0.269,0-0.537-0.108-0.733-0.321c-0.376-0.405-0.352-1.038,0.054-1.413 l1.468-1.359c0.404-0.375,1.039-0.351,1.413,0.055c0.376,0.405,0.352,1.038-0.054,1.413l-1.468,1.359 C38.714,12.69,38.47,12.778,38.227,12.778z"></path>
    <path fill="#8d6c9f" d="M33.992,10.314c-0.083,0-0.167-0.01-0.25-0.032c-0.535-0.138-0.857-0.683-0.72-1.218l0.499-1.937 c0.139-0.535,0.691-0.854,1.218-0.719c0.535,0.138,0.857,0.683,0.72,1.218L34.96,9.564 C34.844,10.015,34.438,10.314,33.992,10.314z"></path>
    <path fill="#8d6c9f" d="M29.008,10.314c-0.446,0-0.852-0.3-0.968-0.751l-0.498-1.937c-0.138-0.535,0.185-1.08,0.719-1.217 c0.538-0.14,1.081,0.185,1.217,0.719l0.498,1.937c0.138,0.535-0.185,1.08-0.719,1.217C29.174,10.304,29.09,10.314,29.008,10.314z"></path>
    <path fill="#8d6c9f" d="M24.773,12.776c-0.243,0-0.487-0.088-0.68-0.266l-1.467-1.359 c-0.405-0.375-0.429-1.008-0.054-1.414c0.375-0.405,1.007-0.43,1.414-0.054l1.467,1.359c0.405,0.375,0.429,1.008,0.054,1.414 C25.31,12.668,25.042,12.776,24.773,12.776z"></path>
    <path fill="#efc88e" d="M31.48,58c-8.476,0-16.155-4.493-19.561-11.446l-4.825-8.236c-0.097-0.164-0.119-0.355-0.065-0.537 c0.054-0.177,0.173-0.322,0.34-0.407c0.775-0.401,3.6-1.773,4.341-2.125c0.094-0.045,0.195-0.068,0.3-0.068 c0.268,0,0.511,0.144,0.636,0.375l3.276,6.062c3.125,6.927,8.076,10.173,15.558,10.173s12.433-3.246,15.581-10.216l3.351-6.198 C50.535,35.148,50.785,35,51.049,35c0.113,0,0.221,0.027,0.322,0.08c0.237,0.125,0.674,0.35,1.188,0.612 c1.1,0.564,2.608,1.337,3.109,1.632c0.32,0.188,0.427,0.603,0.238,0.925l-4.842,8.26C47.634,53.508,39.955,58,31.48,58z"></path>
    <path fill="#8d6c9f" d="M31.479,59c-8.855,0-16.886-4.712-20.458-12.006l-4.79-8.17c-0.238-0.403-0.295-0.876-0.161-1.328 c0.135-0.444,0.434-0.802,0.842-1.011c0.781-0.403,3.625-1.785,4.369-2.138c0.787-0.38,1.82-0.044,2.243,0.732l3.278,6.064 c2.981,6.603,7.635,9.648,14.678,9.648c7.042,0,11.704-3.059,14.67-9.628l3.382-6.263c0.433-0.797,1.494-1.132,2.304-0.707 c0.237,0.125,0.671,0.347,1.18,0.608l0.161,0.083c1.112,0.571,2.497,1.282,3,1.578c0.386,0.226,0.659,0.59,0.771,1.025 c0.111,0.433,0.048,0.884-0.179,1.269l-4.842,8.258C48.375,54.27,40.335,59,31.479,59z M8.13,38.109l4.652,7.94 C16.056,52.727,23.382,57,31.479,57s15.433-4.291,18.687-10.932l4.712-8.042c-0.61-0.333-1.747-0.917-2.615-1.362l-0.16-0.082 c-0.368-0.188-0.698-0.357-0.944-0.485l-3.218,5.954c-3.297,7.308-8.537,10.741-16.461,10.741c-7.816,0-13.203-3.52-16.469-10.762 l-3.116-5.76C11.024,36.687,9.055,37.644,8.13,38.109z M7.829,38.262c0,0-0.001,0-0.001,0C7.828,38.262,7.829,38.262,7.829,38.262z M7.955,37.811l0.001,0.001C7.956,37.812,7.956,37.811,7.955,37.811z M12.142,36.151c0,0-0.001,0-0.002,0.001 C12.141,36.152,12.142,36.152,12.142,36.151z"></path>
    <g>
        <circle cx="31.5" cy="22.5" r="9.5" fill="#efc88e"></circle>
        <path fill="#8d6c9f" d="M31.5,33C25.71,33,21,28.29,21,22.5S25.71,12,31.5,12C37.29,12,42,16.71,42,22.5S37.29,33,31.5,33z M31.5,14c-4.687,0-8.5,3.813-8.5,8.5s3.813,8.5,8.5,8.5c4.687,0,8.5-3.813,8.5-8.5S36.187,14,31.5,14z"></path>
    </g>
    <g>
        <circle cx="31.5" cy="22.5" r="5.5" fill="#85cbf8"></circle>
        <path fill="#8d6c9f" d="M31.5,29c-3.584,0-6.5-2.916-6.5-6.5s2.916-6.5,6.5-6.5s6.5,2.916,6.5,6.5S35.084,29,31.5,29z M31.5,18c-2.481,0-4.5,2.019-4.5,4.5s2.019,4.5,4.5,4.5s4.5-2.019,4.5-4.5S33.981,18,31.5,18z"></path>
    </g>
    <g>
        <circle cx="24" cy="44" r="2" fill="#efc88e"></circle>
        <path fill="#8d6c9f" d="M24,47c-1.654,0-3-1.346-3-3s1.346-3,3-3s3,1.346,3,3S25.654,47,24,47z M24,43c-0.551,0-1,0.449-1,1 s0.449,1,1,1s1-0.449,1-1S24.551,43,24,43z"></path>
    </g>
    <g>
        <circle cx="39" cy="44" r="2" fill="#efc88e"></circle>
        <path fill="#8d6c9f" d="M39,47c-1.654,0-3-1.346-3-3s1.346-3,3-3s3,1.346,3,3S40.654,47,39,47z M39,43c-0.552,0-1,0.449-1,1 s0.448,1,1,1s1-0.449,1-1S39.552,43,39,43z"></path>
    </g>
    <g>
        <circle cx="50" cy="42" r="1" fill="#8d6c9f"></circle>
    </g>
    <g>
        <circle cx="12" cy="41" r="1" fill="#8d6c9f"></circle>
    </g>
    <g>
        <circle cx="23" cy="53" r="1" fill="#8d6c9f"></circle>
    </g>
    <g>
        <circle cx="40" cy="53" r="1" fill="#8d6c9f"></circle>
    </g>
</svg>
